<svg width="75" height="75" viewBox="0 0 75 75" fill="none" xmlns="http://www.w3.org/2000/svg">
<path d="M58.28 66.87C57.6503 66.8845 57.024 66.7724 56.4383 66.5405C55.8525 66.3087 55.3193 65.9616 54.87 65.52C54.2 64.88 53.57 64.19 52.87 63.52C52.2577 62.8685 51.456 62.4263 50.5784 62.2558C49.7007 62.0853 48.7917 62.1952 47.98 62.57C47.1467 62.8915 46.4331 63.4629 45.9372 64.2059C45.4413 64.9489 45.1873 65.827 45.21 66.72C45.21 67.72 45.21 68.72 45.21 69.72C45.201 70.3407 45.069 70.9534 44.8219 71.5228C44.5747 72.0922 44.2172 72.607 43.77 73.0375C43.3228 73.4679 42.7947 73.8056 42.2163 74.0308C41.6379 74.2561 41.0206 74.3646 40.4 74.35H34.8001C34.1631 74.3607 33.5304 74.2439 32.9393 74.0066C32.3481 73.7693 31.8103 73.4162 31.3575 72.9681C30.9047 72.52 30.5461 71.9858 30.3027 71.3971C30.0592 70.8084 29.936 70.177 29.9401 69.54C29.9401 68.54 29.9401 67.54 29.9401 66.54C29.9094 65.6805 29.6321 64.848 29.1411 64.1419C28.6501 63.4357 27.9662 62.8859 27.1711 62.5579C26.3761 62.23 25.5034 62.1378 24.6574 62.2925C23.8113 62.4471 23.0277 62.842 22.4 63.43C21.72 64.07 21.09 64.76 20.4 65.43C19.9444 65.8866 19.4025 66.248 18.8058 66.493C18.2091 66.7381 17.5696 66.8619 16.9246 66.8572C16.2795 66.8526 15.6419 66.7196 15.0488 66.4659C14.4557 66.2123 13.919 65.8432 13.47 65.38C12.1 64.03 10.72 62.67 9.37004 61.3C8.89734 60.8593 8.52039 60.326 8.26265 59.7333C8.00492 59.1407 7.8719 58.5013 7.8719 57.855C7.8719 57.2087 8.00492 56.5693 8.26265 55.9767C8.52039 55.384 8.89734 54.8507 9.37004 54.41C10 53.76 10.66 53.15 11.28 52.5C11.9133 51.9147 12.3494 51.1474 12.5285 50.3039C12.7076 49.4604 12.6208 48.5821 12.28 47.79C11.9954 46.9561 11.4563 46.2326 10.7387 45.7213C10.0211 45.21 9.16116 44.9367 8.28005 44.94C7.28005 44.94 6.28005 44.94 5.28005 44.94C4.61756 44.958 3.95858 44.8378 3.34514 44.5869C2.73171 44.3361 2.17728 43.9602 1.7172 43.4832C1.25712 43.0061 0.901494 42.4385 0.672991 41.8164C0.444489 41.1943 0.348122 40.5314 0.390048 39.87C0.390048 38.1 0.390048 36.33 0.390048 34.56C0.35695 33.3393 0.801264 32.1538 1.62853 31.2556C2.45579 30.3574 3.60076 29.8172 4.82004 29.75C5.82004 29.66 6.87004 29.75 7.90004 29.75C8.82516 29.8013 9.74272 29.5578 10.5208 29.0547C11.2988 28.5516 11.8972 27.8147 12.23 26.95C12.5988 26.1016 12.6841 25.1569 12.4734 24.2562C12.2626 23.3554 11.767 22.5467 11.06 21.95C10.45 21.34 9.82004 20.74 9.23004 20.11C8.79435 19.6769 8.4486 19.162 8.21266 18.5948C7.97672 18.0276 7.85526 17.4193 7.85526 16.805C7.85526 16.1907 7.97672 15.5824 8.21266 15.0152C8.4486 14.448 8.79435 13.9331 9.23004 13.5C10.68 12 12.17 10.5 13.71 9.11C14.6197 8.2745 15.8149 7.81926 17.05 7.83786C18.285 7.85646 19.4659 8.34749 20.3501 9.21C21.0501 9.88 21.7101 10.59 22.4101 11.21C23.0102 11.8286 23.7876 12.2455 24.6349 12.4031C25.4822 12.5608 26.3576 12.4514 27.14 12.09C27.9638 11.7957 28.6757 11.2527 29.1773 10.5361C29.6789 9.81947 29.9455 8.96471 29.9401 8.09C29.9401 7.16 29.9401 6.22 29.9401 5.29C29.9139 4.61867 30.0283 3.94929 30.2761 3.3248C30.5238 2.70031 30.8994 2.13452 31.3787 1.66371C31.8579 1.19291 32.4304 0.827496 33.0592 0.590928C33.688 0.35436 34.3593 0.251858 35.03 0.290002H40.28C40.9322 0.265589 41.5826 0.373881 42.1917 0.608308C42.8008 0.842734 43.3559 1.19842 43.8234 1.65379C44.2909 2.10916 44.6611 2.65472 44.9115 3.25742C45.1619 3.86012 45.2873 4.5074 45.28 5.16C45.28 6.06 45.28 6.96 45.28 7.86C45.2759 8.75529 45.5395 9.63138 46.0369 10.3757C46.5344 11.1201 47.243 11.6988 48.0718 12.0374C48.9006 12.376 49.8117 12.4591 50.6881 12.276C51.5645 12.093 52.3661 11.6521 52.9901 11.01C53.6101 10.4 54.2101 9.77001 54.8301 9.17001C55.2804 8.71948 55.8152 8.36209 56.4037 8.11826C56.9922 7.87443 57.623 7.74894 58.26 7.74894C58.8971 7.74894 59.5279 7.87443 60.1164 8.11826C60.7049 8.36209 61.2397 8.71948 61.6901 9.17001C63.1301 10.56 64.54 11.96 65.94 13.38C66.3934 13.8175 66.754 14.3418 67.0002 14.9216C67.2465 15.5015 67.3734 16.125 67.3734 16.755C67.3734 17.385 67.2465 18.0085 67.0002 18.5884C66.754 19.1682 66.3934 19.6926 65.94 20.13C65.26 20.82 64.5501 21.47 63.8801 22.13C63.2883 22.6894 62.877 23.4127 62.6989 24.2073C62.5207 25.0018 62.5838 25.8315 62.8801 26.59C63.1117 27.4034 63.5864 28.1267 64.2405 28.6628C64.8946 29.199 65.697 29.5225 66.54 29.59C67.59 29.7 68.66 29.59 69.72 29.65C70.3343 29.6102 70.95 29.7001 71.5272 29.9137C72.1044 30.1273 72.6303 30.4599 73.0707 30.8899C73.5111 31.3199 73.8561 31.8377 74.0834 32.4096C74.3107 32.9816 74.4152 33.595 74.39 34.21C74.4567 36.21 74.4567 38.2367 74.39 40.29C74.4145 40.9214 74.3051 41.5508 74.069 42.1369C73.833 42.723 73.4756 43.2525 73.0204 43.6907C72.5652 44.1289 72.0224 44.4659 71.4278 44.6795C70.8331 44.893 70.2 44.9784 69.57 44.93C68.64 44.93 67.7001 44.93 66.7701 44.93C65.9095 44.9514 65.0762 45.2361 64.3825 45.7457C63.6887 46.2553 63.1679 46.9653 62.89 47.78C62.55 48.5544 62.4578 49.4151 62.6261 50.244C62.7944 51.0729 63.2149 51.8295 63.8301 52.41C64.5001 53.1 65.21 53.75 65.83 54.41C66.2824 54.849 66.6421 55.3744 66.8877 55.955C67.1333 56.5356 67.2598 57.1596 67.2598 57.79C67.2598 58.4204 67.1333 59.0444 66.8877 59.625C66.6421 60.2056 66.2824 60.731 65.83 61.17C64.44 62.6 63.0201 64 61.6001 65.4C60.7298 66.3076 59.537 66.8357 58.28 66.87V66.87ZM22.17 37.27C22.1641 40.3229 23.0634 43.309 24.7541 45.8509C26.4449 48.3929 28.8513 50.3765 31.6691 51.5512C34.487 52.7259 37.5898 53.0388 40.5855 52.4505C43.5811 51.8622 46.3351 50.399 48.4994 48.2459C50.6637 46.0928 52.1412 43.3464 52.745 40.3538C53.3488 37.3612 53.0519 34.2568 51.8919 31.4329C50.7318 28.609 48.7606 26.1924 46.2275 24.4885C43.6943 22.7846 40.7129 21.8699 37.6601 21.86C35.628 21.8468 33.6134 22.2357 31.7322 23.0042C29.851 23.7727 28.1404 24.9057 26.6988 26.338C25.2573 27.7702 24.1132 29.4735 23.3326 31.3497C22.5519 33.2258 22.15 35.2379 22.15 37.27H22.17Z" fill="#3954B6"/>
</svg>
